<svg xmlns="http://www.w3.org/2000/svg" width="990" height="162" viewBox="0 0 990 162" fill="none">
<rect x="20" y="20" width="14" height="14" rx="3" ry="3" fill="#22c55e"/>
<rect x="38" y="20" width="14" height="14" rx="3" ry="3" fill="#22c55e"/>
<rect x="56" y="20" width="14" height="14" rx="3" ry="3" fill="#22c55e"/>
<rect x="74" y="20" width="14" height="14" rx="3" ry="3" fill="#22c55e"/>
<rect x="20" y="38" width="14" height="14" rx="3" ry="3" fill="#22c55e"/>
<rect x="92" y="38" width="14" height="14" rx="3" ry="3" fill="#22c55e"/>
<rect x="20" y="56" width="14" height="14" rx="3" ry="3" fill="#22c55e"/>
<rect x="92" y="56" width="14" height="14" rx="3" ry="3" fill="#22c55e"/>
<rect x="20" y="74" width="14" height="14" rx="3" ry="3" fill="#22c55e"/>
<rect x="38" y="74" width="14" height="14" rx="3" ry="3" fill="#22c55e"/>
<rect x="56" y="74" width="14" height="14" rx="3" ry="3" fill="#22c55e"/>
<rect x="74" y="74" width="14" height="14" rx="3" ry="3" fill="#22c55e"/>
<rect x="20" y="92" width="14" height="14" rx="3" ry="3" fill="#22c55e"/>
<rect x="20" y="110" width="14" height="14" rx="3" ry="3" fill="#22c55e"/>
<rect x="20" y="128" width="14" height="14" rx="3" ry="3" fill="#22c55e"/>
<rect x="128" y="20" width="14" height="14" rx="3" ry="3" fill="#22c55e"/>
<rect x="146" y="20" width="14" height="14" rx="3" ry="3" fill="#22c55e"/>
<rect x="164" y="20" width="14" height="14" rx="3" ry="3" fill="#22c55e"/>
<rect x="182" y="20" width="14" height="14" rx="3" ry="3" fill="#22c55e"/>
<rect x="128" y="38" width="14" height="14" rx="3" ry="3" fill="#22c55e"/>
<rect x="200" y="38" width="14" height="14" rx="3" ry="3" fill="#22c55e"/>
<rect x="128" y="56" width="14" height="14" rx="3" ry="3" fill="#22c55e"/>
<rect x="200" y="56" width="14" height="14" rx="3" ry="3" fill="#22c55e"/>
<rect x="128" y="74" width="14" height="14" rx="3" ry="3" fill="#22c55e"/>
<rect x="146" y="74" width="14" height="14" rx="3" ry="3" fill="#22c55e"/>
<rect x="164" y="74" width="14" height="14" rx="3" ry="3" fill="#22c55e"/>
<rect x="182" y="74" width="14" height="14" rx="3" ry="3" fill="#22c55e"/>
<rect x="128" y="92" width="14" height="14" rx="3" ry="3" fill="#22c55e"/>
<rect x="200" y="92" width="14" height="14" rx="3" ry="3" fill="#22c55e"/>
<rect x="128" y="110" width="14" height="14" rx="3" ry="3" fill="#22c55e"/>
<rect x="200" y="110" width="14" height="14" rx="3" ry="3" fill="#22c55e"/>
<rect x="128" y="128" width="14" height="14" rx="3" ry="3" fill="#22c55e"/>
<rect x="146" y="128" width="14" height="14" rx="3" ry="3" fill="#22c55e"/>
<rect x="164" y="128" width="14" height="14" rx="3" ry="3" fill="#22c55e"/>
<rect x="182" y="128" width="14" height="14" rx="3" ry="3" fill="#22c55e"/>
<rect x="254" y="20" width="14" height="14" rx="3" ry="3" fill="#22c55e"/>
<rect x="272" y="20" width="14" height="14" rx="3" ry="3" fill="#22c55e"/>
<rect x="290" y="20" width="14" height="14" rx="3" ry="3" fill="#22c55e"/>
<rect x="308" y="20" width="14" height="14" rx="3" ry="3" fill="#22c55e"/>
<rect x="236" y="38" width="14" height="14" rx="3" ry="3" fill="#22c55e"/>
<rect x="236" y="56" width="14" height="14" rx="3" ry="3" fill="#22c55e"/>
<rect x="236" y="74" width="14" height="14" rx="3" ry="3" fill="#22c55e"/>
<rect x="236" y="92" width="14" height="14" rx="3" ry="3" fill="#22c55e"/>
<rect x="236" y="110" width="14" height="14" rx="3" ry="3" fill="#22c55e"/>
<rect x="254" y="128" width="14" height="14" rx="3" ry="3" fill="#22c55e"/>
<rect x="272" y="128" width="14" height="14" rx="3" ry="3" fill="#22c55e"/>
<rect x="290" y="128" width="14" height="14" rx="3" ry="3" fill="#22c55e"/>
<rect x="308" y="128" width="14" height="14" rx="3" ry="3" fill="#22c55e"/>
<rect x="344" y="20" width="14" height="14" rx="3" ry="3" fill="#22c55e"/>
<rect x="362" y="20" width="14" height="14" rx="3" ry="3" fill="#22c55e"/>
<rect x="380" y="20" width="14" height="14" rx="3" ry="3" fill="#22c55e"/>
<rect x="398" y="20" width="14" height="14" rx="3" ry="3" fill="#22c55e"/>
<rect x="416" y="20" width="14" height="14" rx="3" ry="3" fill="#22c55e"/>
<rect x="380" y="38" width="14" height="14" rx="3" ry="3" fill="#22c55e"/>
<rect x="380" y="56" width="14" height="14" rx="3" ry="3" fill="#22c55e"/>
<rect x="380" y="74" width="14" height="14" rx="3" ry="3" fill="#22c55e"/>
<rect x="380" y="92" width="14" height="14" rx="3" ry="3" fill="#22c55e"/>
<rect x="380" y="110" width="14" height="14" rx="3" ry="3" fill="#22c55e"/>
<rect x="380" y="128" width="14" height="14" rx="3" ry="3" fill="#22c55e"/>
<rect x="452" y="20" width="14" height="14" rx="3" ry="3" fill="#22c55e"/>
<rect x="470" y="20" width="14" height="14" rx="3" ry="3" fill="#22c55e"/>
<rect x="488" y="20" width="14" height="14" rx="3" ry="3" fill="#22c55e"/>
<rect x="506" y="20" width="14" height="14" rx="3" ry="3" fill="#22c55e"/>
<rect x="524" y="20" width="14" height="14" rx="3" ry="3" fill="#22c55e"/>
<rect x="452" y="38" width="14" height="14" rx="3" ry="3" fill="#22c55e"/>
<rect x="452" y="56" width="14" height="14" rx="3" ry="3" fill="#22c55e"/>
<rect x="452" y="74" width="14" height="14" rx="3" ry="3" fill="#22c55e"/>
<rect x="470" y="74" width="14" height="14" rx="3" ry="3" fill="#22c55e"/>
<rect x="488" y="74" width="14" height="14" rx="3" ry="3" fill="#22c55e"/>
<rect x="506" y="74" width="14" height="14" rx="3" ry="3" fill="#22c55e"/>
<rect x="452" y="92" width="14" height="14" rx="3" ry="3" fill="#22c55e"/>
<rect x="452" y="110" width="14" height="14" rx="3" ry="3" fill="#22c55e"/>
<rect x="452" y="128" width="14" height="14" rx="3" ry="3" fill="#22c55e"/>
<rect x="668" y="20" width="14" height="14" rx="3" ry="3" fill="#22c55e"/>
<rect x="686" y="20" width="14" height="14" rx="3" ry="3" fill="#22c55e"/>
<rect x="704" y="20" width="14" height="14" rx="3" ry="3" fill="#22c55e"/>
<rect x="722" y="20" width="14" height="14" rx="3" ry="3" fill="#22c55e"/>
<rect x="740" y="20" width="14" height="14" rx="3" ry="3" fill="#22c55e"/>
<rect x="668" y="38" width="14" height="14" rx="3" ry="3" fill="#22c55e"/>
<rect x="668" y="56" width="14" height="14" rx="3" ry="3" fill="#22c55e"/>
<rect x="668" y="74" width="14" height="14" rx="3" ry="3" fill="#22c55e"/>
<rect x="686" y="74" width="14" height="14" rx="3" ry="3" fill="#22c55e"/>
<rect x="704" y="74" width="14" height="14" rx="3" ry="3" fill="#22c55e"/>
<rect x="722" y="74" width="14" height="14" rx="3" ry="3" fill="#22c55e"/>
<rect x="740" y="92" width="14" height="14" rx="3" ry="3" fill="#22c55e"/>
<rect x="740" y="110" width="14" height="14" rx="3" ry="3" fill="#22c55e"/>
<rect x="668" y="128" width="14" height="14" rx="3" ry="3" fill="#22c55e"/>
<rect x="686" y="128" width="14" height="14" rx="3" ry="3" fill="#22c55e"/>
<rect x="704" y="128" width="14" height="14" rx="3" ry="3" fill="#22c55e"/>
<rect x="722" y="128" width="14" height="14" rx="3" ry="3" fill="#22c55e"/>
<rect x="794" y="110" width="14" height="14" rx="3" ry="3" fill="#22c55e"/>
<rect x="812" y="110" width="14" height="14" rx="3" ry="3" fill="#22c55e"/>
<rect x="794" y="128" width="14" height="14" rx="3" ry="3" fill="#22c55e"/>
<rect x="812" y="128" width="14" height="14" rx="3" ry="3" fill="#22c55e"/>
<rect x="902" y="20" width="14" height="14" rx="3" ry="3" fill="#22c55e"/>
<rect x="920" y="20" width="14" height="14" rx="3" ry="3" fill="#22c55e"/>
<rect x="938" y="20" width="14" height="14" rx="3" ry="3" fill="#22c55e"/>
<rect x="884" y="38" width="14" height="14" rx="3" ry="3" fill="#22c55e"/>
<rect x="956" y="38" width="14" height="14" rx="3" ry="3" fill="#22c55e"/>
<rect x="884" y="56" width="14" height="14" rx="3" ry="3" fill="#22c55e"/>
<rect x="938" y="56" width="14" height="14" rx="3" ry="3" fill="#22c55e"/>
<rect x="956" y="56" width="14" height="14" rx="3" ry="3" fill="#22c55e"/>
<rect x="884" y="74" width="14" height="14" rx="3" ry="3" fill="#22c55e"/>
<rect x="920" y="74" width="14" height="14" rx="3" ry="3" fill="#22c55e"/>
<rect x="956" y="74" width="14" height="14" rx="3" ry="3" fill="#22c55e"/>
<rect x="884" y="92" width="14" height="14" rx="3" ry="3" fill="#22c55e"/>
<rect x="902" y="92" width="14" height="14" rx="3" ry="3" fill="#22c55e"/>
<rect x="956" y="92" width="14" height="14" rx="3" ry="3" fill="#22c55e"/>
<rect x="884" y="110" width="14" height="14" rx="3" ry="3" fill="#22c55e"/>
<rect x="956" y="110" width="14" height="14" rx="3" ry="3" fill="#22c55e"/>
<rect x="902" y="128" width="14" height="14" rx="3" ry="3" fill="#22c55e"/>
<rect x="920" y="128" width="14" height="14" rx="3" ry="3" fill="#22c55e"/>
<rect x="938" y="128" width="14" height="14" rx="3" ry="3" fill="#22c55e"/>
</svg>
