<svg xmlns="http://www.w3.org/2000/svg" width="558" height="306" viewBox="0 0 558 306" fill="none">
<rect x="20" y="20" width="14" height="14" rx="3" ry="3" fill="#22c55e"/>
<rect x="38" y="20" width="14" height="14" rx="3" ry="3" fill="#22c55e"/>
<rect x="56" y="20" width="14" height="14" rx="3" ry="3" fill="#22c55e"/>
<rect x="74" y="20" width="14" height="14" rx="3" ry="3" fill="#22c55e"/>
<rect x="20" y="38" width="14" height="14" rx="3" ry="3" fill="#22c55e"/>
<rect x="92" y="38" width="14" height="14" rx="3" ry="3" fill="#22c55e"/>
<rect x="20" y="56" width="14" height="14" rx="3" ry="3" fill="#22c55e"/>
<rect x="92" y="56" width="14" height="14" rx="3" ry="3" fill="#22c55e"/>
<rect x="20" y="74" width="14" height="14" rx="3" ry="3" fill="#22c55e"/>
<rect x="38" y="74" width="14" height="14" rx="3" ry="3" fill="#22c55e"/>
<rect x="56" y="74" width="14" height="14" rx="3" ry="3" fill="#22c55e"/>
<rect x="74" y="74" width="14" height="14" rx="3" ry="3" fill="#22c55e"/>
<rect x="20" y="92" width="14" height="14" rx="3" ry="3" fill="#22c55e"/>
<rect x="20" y="110" width="14" height="14" rx="3" ry="3" fill="#22c55e"/>
<rect x="20" y="128" width="14" height="14" rx="3" ry="3" fill="#22c55e"/>
<rect x="128" y="20" width="14" height="14" rx="3" ry="3" fill="#22c55e"/>
<rect x="146" y="20" width="14" height="14" rx="3" ry="3" fill="#22c55e"/>
<rect x="164" y="20" width="14" height="14" rx="3" ry="3" fill="#22c55e"/>
<rect x="182" y="20" width="14" height="14" rx="3" ry="3" fill="#22c55e"/>
<rect x="128" y="38" width="14" height="14" rx="3" ry="3" fill="#22c55e"/>
<rect x="200" y="38" width="14" height="14" rx="3" ry="3" fill="#22c55e"/>
<rect x="128" y="56" width="14" height="14" rx="3" ry="3" fill="#22c55e"/>
<rect x="200" y="56" width="14" height="14" rx="3" ry="3" fill="#22c55e"/>
<rect x="128" y="74" width="14" height="14" rx="3" ry="3" fill="#22c55e"/>
<rect x="146" y="74" width="14" height="14" rx="3" ry="3" fill="#22c55e"/>
<rect x="164" y="74" width="14" height="14" rx="3" ry="3" fill="#22c55e"/>
<rect x="182" y="74" width="14" height="14" rx="3" ry="3" fill="#22c55e"/>
<rect x="128" y="92" width="14" height="14" rx="3" ry="3" fill="#22c55e"/>
<rect x="200" y="92" width="14" height="14" rx="3" ry="3" fill="#22c55e"/>
<rect x="128" y="110" width="14" height="14" rx="3" ry="3" fill="#22c55e"/>
<rect x="200" y="110" width="14" height="14" rx="3" ry="3" fill="#22c55e"/>
<rect x="128" y="128" width="14" height="14" rx="3" ry="3" fill="#22c55e"/>
<rect x="146" y="128" width="14" height="14" rx="3" ry="3" fill="#22c55e"/>
<rect x="164" y="128" width="14" height="14" rx="3" ry="3" fill="#22c55e"/>
<rect x="182" y="128" width="14" height="14" rx="3" ry="3" fill="#22c55e"/>
<rect x="254" y="20" width="14" height="14" rx="3" ry="3" fill="#22c55e"/>
<rect x="272" y="20" width="14" height="14" rx="3" ry="3" fill="#22c55e"/>
<rect x="290" y="20" width="14" height="14" rx="3" ry="3" fill="#22c55e"/>
<rect x="308" y="20" width="14" height="14" rx="3" ry="3" fill="#22c55e"/>
<rect x="236" y="38" width="14" height="14" rx="3" ry="3" fill="#22c55e"/>
<rect x="236" y="56" width="14" height="14" rx="3" ry="3" fill="#22c55e"/>
<rect x="236" y="74" width="14" height="14" rx="3" ry="3" fill="#22c55e"/>
<rect x="236" y="92" width="14" height="14" rx="3" ry="3" fill="#22c55e"/>
<rect x="236" y="110" width="14" height="14" rx="3" ry="3" fill="#22c55e"/>
<rect x="254" y="128" width="14" height="14" rx="3" ry="3" fill="#22c55e"/>
<rect x="272" y="128" width="14" height="14" rx="3" ry="3" fill="#22c55e"/>
<rect x="290" y="128" width="14" height="14" rx="3" ry="3" fill="#22c55e"/>
<rect x="308" y="128" width="14" height="14" rx="3" ry="3" fill="#22c55e"/>
<rect x="344" y="20" width="14" height="14" rx="3" ry="3" fill="#22c55e"/>
<rect x="362" y="20" width="14" height="14" rx="3" ry="3" fill="#22c55e"/>
<rect x="380" y="20" width="14" height="14" rx="3" ry="3" fill="#22c55e"/>
<rect x="398" y="20" width="14" height="14" rx="3" ry="3" fill="#22c55e"/>
<rect x="416" y="20" width="14" height="14" rx="3" ry="3" fill="#22c55e"/>
<rect x="380" y="38" width="14" height="14" rx="3" ry="3" fill="#22c55e"/>
<rect x="380" y="56" width="14" height="14" rx="3" ry="3" fill="#22c55e"/>
<rect x="380" y="74" width="14" height="14" rx="3" ry="3" fill="#22c55e"/>
<rect x="380" y="92" width="14" height="14" rx="3" ry="3" fill="#22c55e"/>
<rect x="380" y="110" width="14" height="14" rx="3" ry="3" fill="#22c55e"/>
<rect x="380" y="128" width="14" height="14" rx="3" ry="3" fill="#22c55e"/>
<rect x="452" y="20" width="14" height="14" rx="3" ry="3" fill="#22c55e"/>
<rect x="470" y="20" width="14" height="14" rx="3" ry="3" fill="#22c55e"/>
<rect x="488" y="20" width="14" height="14" rx="3" ry="3" fill="#22c55e"/>
<rect x="506" y="20" width="14" height="14" rx="3" ry="3" fill="#22c55e"/>
<rect x="524" y="20" width="14" height="14" rx="3" ry="3" fill="#22c55e"/>
<rect x="452" y="38" width="14" height="14" rx="3" ry="3" fill="#22c55e"/>
<rect x="452" y="56" width="14" height="14" rx="3" ry="3" fill="#22c55e"/>
<rect x="452" y="74" width="14" height="14" rx="3" ry="3" fill="#22c55e"/>
<rect x="470" y="74" width="14" height="14" rx="3" ry="3" fill="#22c55e"/>
<rect x="488" y="74" width="14" height="14" rx="3" ry="3" fill="#22c55e"/>
<rect x="506" y="74" width="14" height="14" rx="3" ry="3" fill="#22c55e"/>
<rect x="452" y="92" width="14" height="14" rx="3" ry="3" fill="#22c55e"/>
<rect x="452" y="110" width="14" height="14" rx="3" ry="3" fill="#22c55e"/>
<rect x="452" y="128" width="14" height="14" rx="3" ry="3" fill="#22c55e"/>
<rect x="20" y="164" width="14" height="14" rx="3" ry="3" fill="#22c55e"/>
<rect x="38" y="164" width="14" height="14" rx="3" ry="3" fill="#22c55e"/>
<rect x="56" y="164" width="14" height="14" rx="3" ry="3" fill="#22c55e"/>
<rect x="74" y="164" width="14" height="14" rx="3" ry="3" fill="#22c55e"/>
<rect x="92" y="164" width="14" height="14" rx="3" ry="3" fill="#22c55e"/>
<rect x="20" y="182" width="14" height="14" rx="3" ry="3" fill="#22c55e"/>
<rect x="20" y="200" width="14" height="14" rx="3" ry="3" fill="#22c55e"/>
<rect x="20" y="218" width="14" height="14" rx="3" ry="3" fill="#22c55e"/>
<rect x="38" y="218" width="14" height="14" rx="3" ry="3" fill="#22c55e"/>
<rect x="56" y="218" width="14" height="14" rx="3" ry="3" fill="#22c55e"/>
<rect x="74" y="218" width="14" height="14" rx="3" ry="3" fill="#22c55e"/>
<rect x="92" y="236" width="14" height="14" rx="3" ry="3" fill="#22c55e"/>
<rect x="92" y="254" width="14" height="14" rx="3" ry="3" fill="#22c55e"/>
<rect x="20" y="272" width="14" height="14" rx="3" ry="3" fill="#22c55e"/>
<rect x="38" y="272" width="14" height="14" rx="3" ry="3" fill="#22c55e"/>
<rect x="56" y="272" width="14" height="14" rx="3" ry="3" fill="#22c55e"/>
<rect x="74" y="272" width="14" height="14" rx="3" ry="3" fill="#22c55e"/>
<rect x="146" y="254" width="14" height="14" rx="3" ry="3" fill="#22c55e"/>
<rect x="164" y="254" width="14" height="14" rx="3" ry="3" fill="#22c55e"/>
<rect x="146" y="272" width="14" height="14" rx="3" ry="3" fill="#22c55e"/>
<rect x="164" y="272" width="14" height="14" rx="3" ry="3" fill="#22c55e"/>
<rect x="254" y="164" width="14" height="14" rx="3" ry="3" fill="#22c55e"/>
<rect x="272" y="164" width="14" height="14" rx="3" ry="3" fill="#22c55e"/>
<rect x="290" y="164" width="14" height="14" rx="3" ry="3" fill="#22c55e"/>
<rect x="236" y="182" width="14" height="14" rx="3" ry="3" fill="#22c55e"/>
<rect x="308" y="182" width="14" height="14" rx="3" ry="3" fill="#22c55e"/>
<rect x="236" y="200" width="14" height="14" rx="3" ry="3" fill="#22c55e"/>
<rect x="290" y="200" width="14" height="14" rx="3" ry="3" fill="#22c55e"/>
<rect x="308" y="200" width="14" height="14" rx="3" ry="3" fill="#22c55e"/>
<rect x="236" y="218" width="14" height="14" rx="3" ry="3" fill="#22c55e"/>
<rect x="272" y="218" width="14" height="14" rx="3" ry="3" fill="#22c55e"/>
<rect x="308" y="218" width="14" height="14" rx="3" ry="3" fill="#22c55e"/>
<rect x="236" y="236" width="14" height="14" rx="3" ry="3" fill="#22c55e"/>
<rect x="254" y="236" width="14" height="14" rx="3" ry="3" fill="#22c55e"/>
<rect x="308" y="236" width="14" height="14" rx="3" ry="3" fill="#22c55e"/>
<rect x="236" y="254" width="14" height="14" rx="3" ry="3" fill="#22c55e"/>
<rect x="308" y="254" width="14" height="14" rx="3" ry="3" fill="#22c55e"/>
<rect x="254" y="272" width="14" height="14" rx="3" ry="3" fill="#22c55e"/>
<rect x="272" y="272" width="14" height="14" rx="3" ry="3" fill="#22c55e"/>
<rect x="290" y="272" width="14" height="14" rx="3" ry="3" fill="#22c55e"/>
</svg>
