<svg width="342" height="318" viewBox="0 0 342 318" fill="none" xmlns="http://www.w3.org/2000/svg">
<path d="M340.756 305.199C338.215 302.865 340.549 300.325 340.549 300.325C342.883 297.785 340.342 295.451 340.342 295.451C337.802 293.117 340.136 290.577 340.136 290.577C342.469 288.037 339.929 285.703 339.929 285.703L329.768 276.368C327.228 274.035 329.561 271.494 329.561 271.494C331.895 268.954 329.355 266.621 329.355 266.621L309.033 247.95C306.493 245.617 308.827 243.076 308.827 243.076C311.16 240.536 308.62 238.203 308.62 238.203L292.109 223.033C285.759 217.198 291.593 210.847 291.593 210.847L297.428 204.497C299.762 201.956 297.221 199.623 297.221 199.623C294.681 197.289 297.015 194.749 297.015 194.749L301.683 189.668C304.016 187.128 301.476 184.794 301.476 184.794C298.936 182.461 301.269 179.921 301.269 179.921C303.603 177.38 301.063 175.047 301.063 175.047C298.522 172.713 300.856 170.173 300.856 170.173C303.19 167.633 300.649 165.299 300.649 165.299C298.109 162.966 300.443 160.425 300.443 160.425C302.776 157.885 300.236 155.551 300.236 155.551C297.696 153.218 300.029 150.678 300.029 150.678C302.363 148.137 299.823 145.804 299.823 145.804C297.282 143.47 299.616 140.93 299.616 140.93C301.95 138.39 299.409 136.056 299.409 136.056C296.869 133.722 299.203 131.182 299.203 131.182C301.536 128.642 298.996 126.308 298.996 126.308C296.456 123.975 298.789 121.435 298.789 121.435C301.123 118.894 298.583 116.561 298.583 116.561L293.502 111.893C290.962 109.559 293.295 107.019 293.295 107.019C295.629 104.479 293.089 102.145 293.089 102.145L282.928 92.8099C280.388 90.4763 282.721 87.936 282.721 87.936C285.055 85.3958 282.514 83.0622 282.514 83.0622L236.791 41.0544C234.25 38.7208 231.917 41.261 231.917 41.261C229.583 43.8013 227.043 41.4677 227.043 41.4677L216.882 32.1326C214.342 29.799 212.008 32.3392 212.008 32.3392C209.674 34.8795 207.134 32.5451 207.134 32.5451L202.054 27.8779C199.513 25.5443 197.18 28.0838 197.18 28.0838C194.846 30.624 192.306 28.2904 192.306 28.2904C189.766 25.9569 187.432 28.4963 187.432 28.4963C185.099 31.0366 182.558 28.703 182.558 28.703C180.018 26.3694 177.685 28.9096 177.685 28.9096C175.351 31.4499 172.811 29.1163 172.811 29.1163L170.27 26.7827C165.19 22.1147 160.523 27.1952 160.523 27.1952L158.189 29.7355C155.856 32.2758 153.315 29.9422 153.315 29.9422C150.775 27.6086 148.441 30.1489 148.441 30.1489C146.108 32.6891 143.568 30.3555 143.568 30.3555C141.027 28.0219 138.694 30.5622 138.694 30.5622C136.36 33.1024 133.82 30.7689 133.82 30.7689C131.28 28.4353 128.946 30.9755 128.946 30.9755L124.279 36.056C121.945 38.5963 119.405 36.2627 119.405 36.2627C116.865 33.9291 114.531 36.4686 114.531 36.4686L108.696 42.8192C102.862 49.1699 96.5118 43.3351 96.5118 43.3351L80.001 28.1651C77.4607 25.8316 75.1271 28.3718 75.1271 28.3718C72.7935 30.9121 70.2533 28.5785 70.2533 28.5785L49.9321 9.90816C47.3918 7.57458 45.0582 10.1148 45.0582 10.1148C42.7246 12.6551 40.1844 10.3215 40.1844 10.3215L30.0233 0.986344C27.4831 -1.34724 25.1495 1.1922 25.1495 1.1922C22.8159 3.73246 20.2757 1.39887 20.2757 1.39887C17.7354 -0.934712 15.4018 1.60554 15.4018 1.60554C13.0682 4.1458 10.528 1.81221 10.528 1.81221C7.98772 -0.521375 5.65414 2.01889 5.65414 2.01889L0.986153 7.0994C-1.34743 9.63965 1.19282 11.9732 1.19282 11.9732C3.73308 14.3068 1.39949 16.8471 1.39949 16.8471C-0.934093 19.3873 1.60616 21.7209 1.60616 21.7209C4.14642 24.0545 1.81283 26.5948 1.81283 26.5948C-0.520752 29.135 2.01951 31.4686 2.01951 31.4686L17.261 45.4709C19.8013 47.8045 17.4677 50.3448 17.4677 50.3448C15.1341 52.885 17.6744 55.2186 17.6744 55.2186L37.9956 73.8889C40.5359 76.2225 38.2023 78.7628 38.2023 78.7628C35.8687 81.303 38.409 83.6366 38.409 83.6366L51.1102 95.3054C56.1908 99.9734 51.5228 105.053 51.5228 105.053L49.1892 107.593C46.8556 110.134 49.3959 112.467 49.3959 112.467C51.9361 114.801 49.6025 117.341 49.6025 117.341L44.9354 122.422C42.6018 124.962 45.142 127.295 45.142 127.295C47.6823 129.629 45.3487 132.169 45.3487 132.169L40.6807 137.25C38.3471 139.79 40.8874 142.124 40.8874 142.124C43.4276 144.457 41.094 146.997 41.094 146.997C38.7605 149.538 41.3007 151.871 41.3007 151.871C43.841 154.205 41.5074 156.745 41.5074 156.745C39.1738 159.285 41.7141 161.619 41.7141 161.619C44.2543 163.953 41.9207 166.493 41.9207 166.493C39.5871 169.033 42.1274 171.367 42.1274 171.367C44.6677 173.7 42.3341 176.24 42.3341 176.24C40.0005 178.781 42.5407 181.114 42.5407 181.114L47.6213 185.781C50.1615 188.115 47.8279 190.655 47.8279 190.655C45.4943 193.196 48.0346 195.529 48.0346 195.529L53.1151 200.197C55.6554 202.531 53.3218 205.071 53.3218 205.071C50.9882 207.611 53.5285 209.945 53.5285 209.945L58.609 214.612C61.1492 216.946 58.8156 219.486 58.8156 219.486C56.4821 222.026 59.0223 224.36 59.0223 224.36L114.906 275.703C117.447 278.037 119.78 275.497 119.78 275.497C122.114 272.957 124.654 275.29 124.654 275.29L129.735 279.958C132.275 282.292 134.608 279.751 134.608 279.751C136.942 277.211 139.482 279.546 139.482 279.546L144.563 284.213C147.103 286.546 149.437 284.006 149.437 284.006C151.77 281.466 154.31 283.799 154.31 283.799L159.391 288.467C161.931 290.801 164.265 288.261 164.265 288.261C166.598 285.72 169.139 288.054 169.139 288.054C171.679 290.388 174.012 287.848 174.012 287.848C176.346 285.308 178.886 287.642 178.886 287.642C181.427 289.975 183.76 287.435 183.76 287.435C186.094 284.895 188.634 287.228 188.634 287.228C191.174 289.562 193.508 287.022 193.508 287.022C195.841 284.481 198.382 286.815 198.382 286.815C200.922 289.148 203.255 286.608 203.255 286.608L207.923 281.528C210.256 278.987 212.797 281.321 212.797 281.321C215.337 283.655 217.67 281.114 217.67 281.114L222.338 276.034C224.671 273.494 227.211 275.827 227.211 275.827C229.752 278.161 232.085 275.62 232.085 275.62L234.419 273.08C239.086 268 244.166 272.667 244.166 272.667L256.868 284.336C259.408 286.669 261.742 284.129 261.742 284.129C264.075 281.589 266.615 283.922 266.615 283.922L286.937 302.593C289.477 304.926 291.811 302.386 291.811 302.386C294.144 299.846 296.684 302.179 296.684 302.179L311.925 316.182C314.465 318.515 316.799 315.975 316.799 315.975C319.133 313.435 321.673 315.768 321.673 315.768C324.213 318.102 326.547 315.562 326.547 315.562C328.88 313.021 331.42 315.355 331.42 315.355C333.961 317.688 336.294 315.148 336.294 315.148L340.962 310.068C343.296 307.527 340.756 305.194 340.756 305.194V305.199ZM254.929 123.29C257.469 125.623 255.135 128.164 255.135 128.164C252.802 130.704 255.342 133.037 255.342 133.037C257.882 135.371 255.549 137.911 255.549 137.911L246.214 148.072C243.88 150.613 246.42 152.946 246.42 152.946C248.961 155.28 246.627 157.82 246.627 157.82L237.292 167.981C234.958 170.521 237.499 172.855 237.499 172.855C240.039 175.188 237.705 177.729 237.705 177.729L213.2 204.401C207.365 210.751 201.015 204.916 201.015 204.916L198.475 202.583C192.125 196.748 197.959 190.397 197.959 190.397L236.467 148.484C238.8 145.944 236.26 143.61 236.26 143.61C233.72 141.277 236.053 138.736 236.053 138.736L250.056 123.496C252.389 120.955 254.93 123.289 254.93 123.289L254.929 123.29ZM239.068 94.665C241.402 92.1248 243.942 94.4584 243.942 94.4584C246.482 96.7919 244.149 99.3322 244.149 99.3322L239.481 104.413C237.148 106.953 239.688 109.287 239.688 109.287C242.228 111.62 239.895 114.16 239.895 114.16L221.224 134.482C218.891 137.022 221.431 139.355 221.431 139.355C223.971 141.689 221.638 144.229 221.638 144.229L183.13 186.143C177.296 192.493 170.946 186.659 170.946 186.659L168.406 184.325C162.055 178.49 167.89 172.14 167.89 172.14L239.07 94.6642L239.068 94.665ZM209.412 86.1557C211.745 83.6155 214.286 85.9491 214.286 85.9491C216.826 88.2827 219.159 85.7424 219.159 85.7424L223.827 80.6619C226.161 78.1216 228.701 80.4552 228.701 80.4552C231.241 82.7888 228.908 85.329 228.908 85.329L157.728 162.805C151.893 169.156 145.543 163.321 145.543 163.321L143.003 160.988C136.652 155.153 142.487 148.802 142.487 148.802L185.662 101.809C187.995 99.2687 190.535 101.602 190.535 101.602C193.076 103.936 195.409 101.396 195.409 101.396L209.412 86.1549V86.1557ZM184.422 72.5659C186.756 70.0257 189.296 72.3593 189.296 72.3593C191.837 74.6928 194.17 72.1526 194.17 72.1526C196.504 69.6123 199.044 71.9459 199.044 71.9459C201.584 74.2795 199.251 76.8198 199.251 76.8198L185.248 92.0605C182.915 94.6007 180.374 92.2672 180.374 92.2672C177.834 89.9336 175.501 92.4738 175.501 92.4738L136.993 134.387C131.158 140.738 124.809 134.903 124.809 134.903L122.268 132.57C115.918 126.735 121.752 120.385 121.752 120.385L146.258 93.713C148.591 91.1728 151.131 93.5064 151.131 93.5064C153.672 95.84 156.005 93.2997 156.005 93.2997L165.34 83.1387C167.674 80.5984 170.214 82.932 170.214 82.932C172.755 85.2656 175.088 82.7253 175.088 82.7253L184.423 72.5643L184.422 72.5659ZM154.766 64.0566L159.433 58.9761C161.767 56.4359 164.307 58.7703 164.307 58.7703C166.847 61.1039 169.181 58.5636 169.181 58.5636C171.514 56.0233 174.055 58.3569 174.055 58.3569C176.595 60.6905 174.261 63.2308 174.261 63.2308L169.594 68.3113C167.261 70.8515 164.72 68.518 164.72 68.518C162.18 66.1844 159.847 68.7246 159.847 68.7246L145.844 83.9662C143.511 86.5064 140.97 84.172 140.97 84.172C138.43 81.8384 136.097 84.3787 136.097 84.3787L110.425 112.321C105.757 117.401 100.677 112.733 100.677 112.733C95.5965 108.065 100.264 102.986 100.264 102.986L125.936 75.0435C128.27 72.5033 130.81 74.8369 130.81 74.8369C133.35 77.1705 135.684 74.6302 135.684 74.6302L145.019 64.4692C147.353 61.9289 149.893 64.2625 149.893 64.2625C152.433 66.5961 154.767 64.0558 154.767 64.0558L154.766 64.0566ZM84.6088 79.2347L105.613 56.3732C107.946 53.833 110.486 56.1666 110.486 56.1666C113.027 58.5001 115.36 55.9599 115.36 55.9599L120.028 50.8794C122.361 48.3391 124.901 50.6727 124.901 50.6727C127.442 53.0063 129.775 50.466 129.775 50.466L134.442 45.3855C136.776 42.8453 139.316 45.1788 139.316 45.1788C141.856 47.5124 144.19 44.9722 144.19 44.9722C146.524 42.4319 149.064 44.7655 149.064 44.7655C151.604 47.0991 149.271 49.6393 149.271 49.6393C146.937 52.1796 144.397 49.846 144.397 49.846C141.856 47.5124 139.523 50.0527 139.523 50.0527L125.521 65.2942C123.187 67.8345 120.647 65.5009 120.647 65.5009C118.106 63.1673 115.773 65.7076 115.773 65.7076L94.769 88.5691C90.101 93.6496 85.0213 88.9824 85.0213 88.9824C79.9408 84.3144 84.6088 79.2347 84.6088 79.2347ZM51.9996 58.6433C54.5398 60.9769 52.2063 63.5172 52.2063 63.5172C49.8727 66.0574 47.3324 63.7239 47.3324 63.7239L32.0917 49.7215C29.5514 47.3879 31.885 44.8477 31.885 44.8477C34.2186 42.3074 31.6783 39.9738 31.6783 39.9738L18.9771 28.3051C13.8965 23.6379 18.5645 18.5574 18.5645 18.5574C23.2325 13.4769 28.3122 18.1441 28.3122 18.1441L41.0135 29.8128C43.5538 32.1464 45.8873 29.6061 45.8873 29.6061C48.2209 27.0659 50.7612 29.3995 50.7612 29.3995L57.1118 35.2342C63.4625 41.069 57.6277 47.4197 57.6277 47.4197L51.7929 53.7703C49.4593 56.3106 51.9996 58.6442 51.9996 58.6442V58.6433ZM60.7953 151.042C63.3355 153.376 61.0019 155.916 61.0019 155.916L56.3348 160.996C54.0012 163.537 56.5414 165.87 56.5414 165.87C59.0817 168.204 56.7481 170.744 56.7481 170.744C54.4145 173.284 51.8743 170.951 51.8743 170.951C49.334 168.617 51.6676 166.077 51.6676 166.077C54.0012 163.537 51.4609 161.203 51.4609 161.203C48.9207 158.87 51.2543 156.329 51.2543 156.329C53.5878 153.789 51.0476 151.455 51.0476 151.455C48.5073 149.122 50.8409 146.582 50.8409 146.582L55.5081 141.501C57.8417 138.961 55.3014 136.627 55.3014 136.627C52.7612 134.294 55.0948 131.753 55.0948 131.753L59.7627 126.673C62.0963 124.133 59.5561 121.799 59.5561 121.799C57.0158 119.465 59.3494 116.925 59.3494 116.925L64.0174 111.845C66.351 109.304 68.8912 111.638 68.8912 111.638C71.4315 113.972 69.0979 116.512 69.0979 116.512C66.7643 119.052 69.3046 121.386 69.3046 121.386C71.8448 123.719 69.5112 126.26 69.5112 126.26L64.8441 131.34C62.5105 133.88 65.0507 136.214 65.0507 136.214C67.591 138.548 65.2574 141.088 65.2574 141.088L60.5894 146.168C58.2558 148.709 60.7953 151.042 60.7953 151.042ZM76.4493 174.793C78.9896 177.127 76.656 179.667 76.656 179.667L71.9888 184.747C69.6553 187.288 72.1947 189.621 72.1947 189.621C74.735 191.955 72.4014 194.495 72.4014 194.495C70.0678 197.035 67.5275 194.702 67.5275 194.702C64.9873 192.368 67.3209 189.828 67.3209 189.828C69.6544 187.288 67.1142 184.954 67.1142 184.954C64.5739 182.62 66.9075 180.08 66.9075 180.08C69.2411 177.54 66.7008 175.206 66.7008 175.206C64.1606 172.873 66.4942 170.332 66.4942 170.332L71.1622 165.252C73.4958 162.712 70.9555 160.378 70.9555 160.378C68.4152 158.045 70.7488 155.504 70.7488 155.504L75.416 150.424C77.7496 147.883 75.2093 145.55 75.2093 145.55C72.6691 143.216 75.0026 140.676 75.0026 140.676L77.3362 138.136C82.0034 133.055 87.0839 137.723 87.0839 137.723C92.1644 142.391 87.4965 147.471 87.4965 147.471L80.4949 155.092C78.1613 157.632 80.7016 159.966 80.7016 159.966C83.2418 162.299 80.9082 164.839 80.9082 164.839L76.241 169.92C73.9075 172.46 76.4477 174.794 76.4477 174.794L76.4493 174.793ZM82.7683 208.704C80.228 206.37 82.5616 203.83 82.5616 203.83C84.8952 201.29 82.3549 198.956 82.3549 198.956C79.8147 196.623 82.1482 194.082 82.1482 194.082L86.8154 189.002C89.149 186.462 86.6087 184.128 86.6087 184.128C84.0685 181.795 86.4021 179.254 86.4021 179.254L91.0701 174.174C93.4036 171.633 90.8634 169.3 90.8634 169.3C88.3231 166.966 90.6567 164.426 90.6567 164.426L97.6583 156.805C102.326 151.725 107.406 156.392 107.406 156.392C112.486 161.06 107.819 166.14 107.819 166.14L105.485 168.68C103.151 171.22 105.692 173.554 105.692 173.554C108.232 175.887 105.898 178.428 105.898 178.428L91.8959 193.668C89.5623 196.209 92.1026 198.542 92.1026 198.542C94.6429 200.876 92.3093 203.416 92.3093 203.416L87.6413 208.497C85.3077 211.037 82.7674 208.703 82.7674 208.703L82.7683 208.704ZM93.3418 227.788C90.8015 225.454 93.1351 222.914 93.1351 222.914L102.47 212.753C104.804 210.213 102.264 207.879 102.264 207.879C99.7234 205.545 102.057 203.005 102.057 203.005L116.059 187.764C118.393 185.223 115.853 182.89 115.853 182.89C113.312 180.556 115.646 178.016 115.646 178.016L117.98 175.476C122.648 170.395 127.727 175.063 127.727 175.063L131.538 178.563C137.888 184.398 132.053 190.749 132.053 190.749L98.214 227.582C95.8804 230.122 93.3402 227.788 93.3402 227.788L93.3418 227.788ZM122.792 231.423L113.456 241.584C111.123 244.124 108.583 241.791 108.583 241.791C106.042 239.457 108.376 236.917 108.376 236.917L142.216 200.084C148.051 193.733 154.401 199.568 154.401 199.568L158.211 203.069C163.292 207.736 158.624 212.816 158.624 212.816L156.29 215.357C153.956 217.897 151.416 215.563 151.416 215.563C148.876 213.23 146.542 215.77 146.542 215.77L132.539 231.011C130.206 233.552 127.665 231.217 127.665 231.217C125.125 228.884 122.792 231.424 122.792 231.424V231.423ZM138.24 250.3C135.699 247.966 133.366 250.507 133.366 250.507C131.032 253.047 128.492 250.713 128.492 250.713C125.952 248.38 128.285 245.84 128.285 245.84L132.953 240.759C135.286 238.219 137.826 240.552 137.826 240.552C140.367 242.886 142.7 240.346 142.7 240.346L156.703 225.104C159.037 222.564 161.577 224.898 161.577 224.898C164.117 227.231 166.451 224.691 166.451 224.691L168.785 222.151C173.453 217.07 178.532 221.737 178.532 221.737C183.613 226.405 178.945 231.485 178.945 231.485L171.943 239.106C169.61 241.646 167.069 239.312 167.069 239.312C164.529 236.979 162.196 239.519 162.196 239.519L157.528 244.6C155.194 247.14 152.654 244.806 152.654 244.806C150.114 242.473 147.78 245.013 147.78 245.013L143.113 250.093C140.779 252.634 138.239 250.3 138.239 250.3H138.24ZM163.228 263.89C160.688 261.556 158.354 264.097 158.354 264.097C156.021 266.637 153.48 264.303 153.48 264.303C150.94 261.97 148.607 264.51 148.607 264.51C146.273 267.05 143.733 264.717 143.733 264.717C141.193 262.383 143.526 259.843 143.526 259.843C145.86 257.302 148.4 259.636 148.4 259.636C150.94 261.97 153.274 259.429 153.274 259.429L157.941 254.349C160.275 251.809 162.815 254.143 162.815 254.143C165.355 256.477 167.689 253.936 167.689 253.936L177.024 243.775C179.357 241.235 181.898 243.569 181.898 243.569C184.438 245.902 186.771 243.362 186.771 243.362L189.105 240.822C193.773 235.741 198.853 240.409 198.853 240.409C203.933 245.077 199.265 250.157 199.265 250.157L196.932 252.697C194.598 255.237 192.058 252.904 192.058 252.904C189.518 250.57 187.184 253.11 187.184 253.11L182.517 258.191C180.183 260.731 177.643 258.398 177.643 258.398C175.103 256.064 172.769 258.604 172.769 258.604L168.101 263.685C165.768 266.225 163.227 263.892 163.227 263.892L163.228 263.89ZM226.591 261.206L221.923 266.287C219.59 268.827 217.05 266.493 217.05 266.493C214.509 264.159 212.176 266.699 212.176 266.699L207.508 271.78C205.174 274.32 202.634 271.987 202.634 271.987C200.094 269.653 197.76 272.193 197.76 272.193C195.426 274.734 192.886 272.4 192.886 272.4C190.346 270.066 188.012 272.607 188.012 272.607L183.345 277.687C181.012 280.227 178.471 277.894 178.471 277.894C175.931 275.56 173.597 278.101 173.597 278.101C171.264 280.641 168.724 278.307 168.724 278.307C166.183 275.974 168.517 273.433 168.517 273.433C170.851 270.893 173.391 273.227 173.391 273.227C175.931 275.56 178.265 273.021 178.265 273.021L182.932 267.94C185.265 265.4 187.806 267.734 187.806 267.734C190.346 270.068 192.68 267.528 192.68 267.528L197.347 262.447C199.681 259.907 202.221 262.241 202.221 262.241C204.762 264.574 207.095 262.034 207.095 262.034L211.763 256.953C214.097 254.413 216.637 256.747 216.637 256.747C219.177 259.08 221.511 256.54 221.511 256.54C223.844 254 226.385 256.333 226.385 256.333C228.925 258.667 226.591 261.207 226.591 261.207L226.591 261.206ZM232.353 224.342C227.685 229.422 222.605 224.755 222.605 224.755C217.525 220.087 222.193 215.007 222.193 215.007L247.865 187.065C250.198 184.525 247.658 182.192 247.658 182.192C245.118 179.858 247.451 177.318 247.451 177.318L261.454 162.077C263.788 159.537 261.248 157.203 261.248 157.203C258.707 154.87 261.041 152.329 261.041 152.329L265.708 147.249C268.042 144.709 270.582 147.042 270.582 147.042C273.122 149.376 270.789 151.916 270.789 151.916C268.455 154.456 270.995 156.79 270.995 156.79C273.536 159.123 271.202 161.664 271.202 161.664L266.534 166.744C264.201 169.284 266.741 171.618 266.741 171.618C269.281 173.952 266.947 176.492 266.947 176.492L257.612 186.653C255.279 189.193 257.819 191.527 257.819 191.527C260.359 193.86 258.026 196.401 258.026 196.401L232.354 224.343L232.353 224.342ZM257.342 237.932C252.675 243.012 247.594 238.344 247.594 238.344C242.514 233.677 247.182 228.596 247.182 228.596L268.186 205.735C270.519 203.195 267.979 200.861 267.979 200.861C265.439 198.528 267.772 195.987 267.772 195.987L281.776 180.746C284.109 178.205 281.569 175.872 281.569 175.872C279.029 173.538 281.362 170.998 281.362 170.998C283.696 168.458 286.236 170.791 286.236 170.791C288.776 173.125 286.443 175.665 286.443 175.665C284.109 178.205 286.649 180.539 286.649 180.539C289.19 182.873 286.856 185.413 286.856 185.413L282.188 190.493C279.855 193.034 282.395 195.367 282.395 195.367C284.935 197.701 282.602 200.241 282.602 200.241L277.934 205.322C275.6 207.862 278.14 210.195 278.14 210.195C280.68 212.529 278.347 215.069 278.347 215.069L257.343 237.931L257.342 237.932ZM323.387 298.61C318.719 303.69 313.639 299.022 313.639 299.022L300.938 287.353C298.398 285.02 296.064 287.56 296.064 287.56C293.731 290.1 291.191 287.767 291.191 287.767L275.949 273.764C273.409 271.431 275.742 268.891 275.742 268.891C278.076 266.35 280.616 268.684 280.616 268.684C283.156 271.018 285.49 268.477 285.49 268.477L290.158 263.397C292.492 260.857 289.951 258.523 289.951 258.523C287.411 256.189 289.745 253.649 289.745 253.649C292.078 251.109 294.618 253.442 294.618 253.442L309.86 267.445C312.4 269.778 310.067 272.319 310.067 272.319C307.733 274.859 310.273 277.192 310.273 277.192L322.974 288.861C328.054 293.529 323.386 298.609 323.386 298.609L323.387 298.61Z" fill="#FF4802"/>
</svg>
